<svg width="180" height="180" viewBox="0 0 180 180" fill="none" xmlns="http://www.w3.org/2000/svg">
<path d="M90 180C139.706 180 180 139.706 180 90C180 40.2937 139.706 0 90 0C40.2937 0 0 40.2937 0 90C0 139.706 40.2937 180 90 180Z" fill="white"/>
<path d="M152.74 152.74C135.983 169.498 113.7 178.728 90 178.728C66.2998 178.728 44.0173 169.498 27.2597 152.74C10.5021 135.983 1.27214 113.7 1.27214 90C1.27214 66.2998 10.5021 44.0204 27.2597 27.2597C44.0173 10.5021 66.2998 1.27214 90 1.27214C113.7 1.27214 135.983 10.5021 152.74 27.2597C169.498 44.0173 178.728 66.2998 178.728 90C178.728 113.7 169.498 135.983 152.74 152.74ZM153.638 26.3621C136.639 9.36307 114.038 0 90 0C65.9624 0 43.358 9.35998 26.359 26.359C9.35998 43.358 0 65.9594 0 89.9969C0 114.034 9.36307 136.639 26.359 153.638C43.358 170.637 65.9593 180 90 180C114.041 180 136.639 170.637 153.638 153.638C170.637 136.639 180 114.038 180 89.9969C180 65.9563 170.637 43.358 153.638 26.359" fill="#C90B0E"/>
<path d="M114.155 109.003C108.717 109.003 106.086 104.803 106.086 104.803C110.71 98.0643 105.814 89.9331 105.814 89.9331C107.355 87.8469 112.704 79.236 112.614 72.9805C112.57 70.0772 110.255 68.7215 110.255 68.7215L112.159 65.0041H121.042V68.9629C121.042 70.4548 121.352 71.1946 118.232 78.2393C114.929 85.6957 114.356 89.8433 114.901 92.9262C116.505 102.014 126.663 99.6335 126.663 99.6335V65.001L138.546 64.9825L139.997 68.7896C137.286 69.7274 135.187 72.9372 135.187 75.3824V99.0145C135.187 101.144 138.679 103.945 141.087 104.874L139.456 109H114.155V109.003ZM122.423 128.233C119.259 130.803 115.861 129.295 115.861 129.295C115.861 129.295 116.446 134.393 112.283 136.077C109.299 137.284 107.999 136.396 107.999 136.396C107.999 136.396 109.389 133.693 108.819 129.911C108.345 126.763 105.052 125.284 103.214 126.188C103.214 126.188 105.696 129.342 104.306 134.424C103.167 138.593 99.456 140.209 97.1129 138.503C97.1129 138.503 98.9762 142.846 94.5098 144.942C92.8415 145.725 90.0898 145.715 90.0898 145.715C90.0898 145.715 87.3382 145.725 85.6698 144.942C81.2034 142.846 83.0668 138.503 83.0668 138.503C80.7206 140.209 77.0125 138.593 75.8703 134.424C74.4806 129.342 76.9629 126.188 76.9629 126.188C75.1244 125.284 71.8311 126.766 71.3575 129.911C70.788 133.693 72.1777 136.396 72.1777 136.396C72.1777 136.396 70.8777 137.284 67.8939 136.077C63.7339 134.393 64.3158 129.295 64.3158 129.295C64.3158 129.295 60.9204 130.803 57.754 128.233C52.0897 123.637 52.4363 118.908 52.4363 118.908C52.4363 118.908 59.4502 121.706 62.9137 121.285C65.4487 120.975 68.5625 120.04 71.1223 119.632C77.4644 118.62 83.2029 124.488 83.2029 124.488C81.3799 117.471 88.762 117.081 90.0836 117.119C91.4053 117.153 98.7874 117.471 96.9643 124.488C96.9643 124.488 102.703 118.62 109.045 119.632C111.602 120.04 114.719 120.975 117.254 121.285C120.717 121.706 127.734 118.908 127.734 118.908C127.734 118.908 128.081 123.637 122.416 128.233M40.3526 109.003L38.7214 104.892C42.8226 103.147 44.6147 100.438 44.6147 99.0919V74.9677C44.6147 71.8322 40.9871 68.9629 39.8109 68.8113L41.2626 65.0041H61.0504C61.0504 65.0041 61.8428 71.077 65.2877 75.8839C69.1196 81.2293 73.1589 87.4972 73.2672 93.019C73.5489 107.743 61.6632 109.006 60.2116 109.006H40.3557L40.3526 109.003ZM94.0239 93.3781L84.2336 83.0431V95.0062C81.3613 95.099 78.6034 98.1509 77.9534 101.989C77.2663 106.044 80.3832 109 80.3832 109H68.2777C73.0011 106.731 75.5299 99.875 75.5299 97.0119V74.3393C75.5299 69.2631 71.4503 66.2701 71.4503 66.2701C76.6194 61.101 85.741 58.9437 94.0239 62.3701C99.2826 64.546 101.784 68.347 102.4 72.151C103.319 77.8215 100.802 81.2479 98.6172 84.1945C98.6172 84.1945 102.907 89.0231 103.811 90.7471C104.718 92.4712 107.717 98.3119 104.083 104.617C101.001 109.965 95.8346 111.779 90.3034 111.779C83.0513 111.779 80.4203 106.61 79.9684 103.893C79.5165 101.175 81.1415 98.9216 82.0546 98.0921C82.751 97.4576 84.0758 97.0181 84.7103 97.2007C85.3448 97.3833 86.3632 97.6278 86.4529 99.5314C86.5427 101.435 88.112 102.515 90.2136 102.899C91.8758 103.202 94.2653 102.289 95.2155 99.6366C96.4691 96.1297 94.0208 93.3812 94.0208 93.3812M57.0761 49.6301C60.2425 43.5882 67.702 45.3866 67.702 45.3866C67.3182 44.0432 67.5101 39.1992 70.9644 37.6144C76.9753 34.8597 80.4513 39.2611 80.4513 39.2611C78.3713 39.5273 77.7832 42.3966 78.7551 44.263C79.4639 45.6249 81.2282 45.9189 82.6706 45.8663C89.9412 45.6032 83.822 36.0761 83.822 36.0761C85.1653 34.6368 89.5667 34.5161 89.5667 34.5161C89.5667 34.5161 93.9681 34.6337 95.3115 36.0761C95.3115 36.0761 89.1953 45.6032 96.4629 45.8663C97.9053 45.9189 99.6665 45.6249 100.378 44.263C101.35 42.3966 100.759 39.5273 98.6822 39.2611C98.6822 39.2611 102.158 34.8597 108.169 37.6144C111.623 39.1992 111.815 44.0432 111.431 45.3866C111.431 45.3866 118.891 43.5882 122.057 49.6301C122.967 51.3696 123.574 55.3563 121.912 57.9037C121.912 57.9037 119.72 55.5358 115.152 54.7156C112.744 54.2822 105.464 56.3251 103.204 56.1053C100.614 55.8546 95.036 55.7463 92.2534 49.5094C91.7582 48.4013 91.3929 47.1199 91.0617 48.0206C90.4953 49.5558 90.0774 49.887 89.8453 49.9211C89.7617 49.9582 89.6689 49.983 89.5698 49.983C89.4708 49.983 89.3779 49.9582 89.2944 49.9211C89.0622 49.887 88.6444 49.5527 88.0779 48.0206C87.7467 47.1199 87.3784 48.4013 86.8832 49.5094C84.1006 55.7432 78.523 55.8515 75.9322 56.1053C73.6727 56.3251 66.3927 54.2822 63.9847 54.7156C59.4161 55.5358 57.2247 57.9037 57.2247 57.9037C55.5625 55.3563 56.1692 51.3665 57.0792 49.6301M89.9939 30.1797C57.008 30.1797 30.1724 57.0153 30.1724 90.0012C30.1724 122.987 57.008 149.823 89.9939 149.823C122.98 149.823 149.815 122.987 149.815 90.0012C149.815 57.0153 122.98 30.1797 89.9939 30.1797Z" fill="#C90B0E"/>
<path d="M80.8628 157.128C79.2285 156.911 77.8481 157.453 77.6562 158.905C77.4642 160.356 78.5816 161.368 80.2964 161.594C81.8781 161.805 83.3761 161.186 83.565 159.759C83.7661 158.242 82.6023 157.36 80.8628 157.128Z" fill="#C90B0E"/>
<path d="M80.0674 163.523C77.7119 163.21 76.5574 164.51 76.316 166.318C76.0869 168.036 77.0217 169.614 79.1914 169.902C81.4138 170.196 82.8438 168.865 83.0759 167.126C83.305 165.408 82.2371 163.811 80.0674 163.523Z" fill="#C90B0E"/>
<path d="M91.6404 68.2084C90.3713 67.4841 87.6661 65.887 85.3292 68.1743C82.9304 70.5205 84.7968 72.9379 85.4189 73.5229C86.0442 74.1079 92.3987 80.1405 92.3987 80.1405C92.3987 80.1405 94.9863 78.3669 95.1689 74.1977C95.2896 71.4429 92.3213 68.5984 91.6404 68.2084Z" fill="#C90B0E"/>
<path d="M64.6561 91.9303C65.8353 82.8644 52.7178 74.8849 52.7178 74.043V99.5446H57.2213C57.2213 99.5446 63.582 100.182 64.6561 91.9303Z" fill="#C90B0E"/>
<path d="M34.9265 138.172C32.147 140.945 32.8403 145.281 35.9851 148.429L36.6691 149.113L45.0355 140.762L43.946 139.67C40.9313 136.649 37.6751 135.426 34.9296 138.169" fill="#C90B0E"/>
<path d="M87.6601 15.7613C90.3406 15.5941 91.6437 14.5634 91.5261 12.6939C91.3991 10.6665 89.4677 9.30771 86.9327 9.46557L86.6387 9.48414L87.0318 15.8015L87.6601 15.7613Z" fill="#C90B0E"/>
<path d="M20.7876 127.129L26.4581 126.816L24.2233 122.551L20.7876 127.129Z" fill="#C90B0E"/>
<path d="M127.991 23.3376C128.851 21.6228 127.585 19.8895 125.716 18.9485L123.308 17.7383L119.94 24.4425C122.528 24.8883 126.79 25.7333 127.994 23.3376" fill="#C90B0E"/>
<path d="M38.2661 37.8775L42.0671 42.0871L44.8651 39.5613C46.419 38.1561 47.4651 36.2711 46.1373 34.7978C44.6763 33.179 42.5406 34.0178 40.8135 35.5809L38.2692 37.8775H38.2661Z" fill="#C90B0E"/>
<path d="M62.2171 28.4773C66.2007 26.679 66.6061 23.1907 65.269 20.2285C63.9566 17.3252 60.9573 15.6445 57.2833 17.3036C53.3492 19.0802 52.7673 22.5004 54.1231 25.5028C55.4447 28.4247 58.3976 30.2014 62.214 28.4773" fill="#C90B0E"/>
<path d="M39.5726 34.1671C40.9128 32.9568 41.7269 31.6321 40.5723 30.3537C39.5354 29.2054 38.0652 29.7656 36.8828 30.8366L34.1436 33.3097L37.0097 36.4823L39.5726 34.1671Z" fill="#C90B0E"/>
<path d="M115.508 152.922C113.483 153.749 113.025 155.491 113.682 157.098C114.304 158.617 115.947 159.503 117.851 158.726C119.702 157.971 120.541 156.095 119.909 154.553C119.253 152.947 117.507 152.105 115.508 152.922Z" fill="#C90B0E"/>
<path d="M159.847 113.854C156.913 112.566 153.526 113.226 151.843 117.061C150.088 121.063 152.118 123.926 155.093 125.232C158.008 126.51 161.367 125.755 162.985 122.066C164.719 118.11 162.862 115.182 159.847 113.857" fill="#C90B0E"/>
<path d="M169.027 94.5848L158.609 94.9624C157.671 94.9965 157.018 95.0213 156.885 96.1758L156.077 96.2067L155.897 91.2884L156.705 91.2606C156.922 92.4058 157.575 92.381 158.513 92.347L160.562 92.2727L168.12 82.2287L158.16 82.5908C157.222 82.6249 156.569 82.6496 156.436 83.8041L155.628 83.8351L155.448 78.9168L156.253 78.8858C156.47 80.0311 157.123 80.0063 158.061 79.9723L168.479 79.5946C169.417 79.5606 170.07 79.5358 170.203 78.3782L171.008 78.3504L171.203 83.6865L164.567 92.1241L168.928 91.9663C169.866 91.9322 170.519 91.9106 170.652 90.7529L171.46 90.7251L171.64 95.6403L170.835 95.6713C170.618 94.526 169.965 94.5508 169.027 94.5848ZM169.566 107.415L168.77 107.272C168.801 106.108 168.161 105.994 167.235 105.827L156.977 103.976C156.055 103.809 155.411 103.691 155.034 104.796L154.238 104.654L155.278 98.8841L156.071 99.0265C156.037 100.19 156.68 100.305 157.606 100.472L167.867 102.323C168.789 102.49 169.433 102.605 169.81 101.503L170.606 101.645L169.566 107.415ZM164.833 122.847C162.614 127.905 157.835 130.551 153.539 128.666C149.103 126.723 147.648 121.625 150.013 116.233C152.338 110.937 157.002 108.495 161.416 110.432C165.771 112.342 167.08 117.719 164.83 122.847M152.87 141.781L142.238 143.26L145.488 146.17C146.188 146.795 146.673 147.232 147.571 146.489L148.175 147.027L144.894 150.695L144.293 150.157C144.931 149.182 144.445 148.745 143.745 148.12L135.976 141.168C135.277 140.543 134.791 140.106 133.89 140.849L133.29 140.311L136.571 136.643L137.171 137.181C136.534 138.156 137.019 138.593 137.719 139.218L139.248 140.586L151.657 138.593L144.228 131.947C143.529 131.322 143.043 130.886 142.145 131.629L141.545 131.09L144.826 127.425L145.426 127.964C144.788 128.939 145.278 129.375 145.974 130L153.743 136.952C154.442 137.578 154.928 138.014 155.826 137.274L156.427 137.81L152.867 141.787L152.87 141.781ZM131.457 153.075C130.634 153.075 129.965 152.407 129.965 151.583C129.965 150.76 130.634 150.092 131.457 150.092C132.281 150.092 132.949 150.76 132.949 151.583C132.949 152.407 132.281 153.075 131.457 153.075ZM119.309 167.23C117.909 167.802 116.449 168.155 115.012 168.428L114.031 166.032L115.282 165.521C115.975 166.428 117.461 165.992 118.51 165.565C122.085 164.104 122.716 161.145 121.463 158.083L121.234 157.52L121.184 157.542C120.937 159.006 119.231 160.408 117.684 161.043C114.434 162.37 111.215 161.352 110.106 158.644C108.871 155.623 110.945 152.562 114.446 151.128C119.473 149.073 122.961 151.466 124.521 155.279C126.403 159.885 124.985 164.915 119.309 167.236M100.375 171.919C96.5431 172.402 92.996 171.26 92.5503 167.731C92.2841 165.611 93.6181 163.875 95.9024 162.999L95.8962 162.955C94.0886 162.866 92.5534 161.494 92.3677 160.018C92.0272 157.316 95.4412 155.66 98.2548 155.304C101.121 154.942 104.789 155.502 105.148 158.362C105.361 160.058 104.359 161.389 102.52 162.141V162.163C104.875 162.253 106.745 163.695 106.996 165.682C107.429 169.121 104.235 171.43 100.375 171.919ZM28.5409 90.0101C28.5409 56.1235 56.1102 28.5574 89.9936 28.5574C123.877 28.5574 151.449 56.1266 151.449 90.0101C151.449 123.894 123.88 151.466 89.9936 151.466C56.1071 151.466 28.5409 123.897 28.5409 90.0101ZM83.5215 162.946C85.7748 163.63 87.2141 165.503 86.951 167.49C86.4929 170.926 82.8158 172.346 78.9591 171.832C75.1303 171.325 71.9887 169.316 72.4591 165.791C72.7408 163.67 74.471 162.333 76.907 162.067L76.9132 162.024C75.186 161.476 74.0532 159.758 74.2482 158.285C74.6072 155.586 78.3277 154.852 81.1413 155.227C84.0074 155.607 87.4091 157.081 87.0284 159.938C86.8024 161.634 85.4932 162.664 83.5246 162.924V162.903L83.5215 162.946ZM64.427 167.434L64.1206 168.208L56.3051 165.125L56.6116 164.351C58.9051 165.159 59.2487 164.738 59.7997 163.333L63.7306 153.363C62.5854 153.397 61.4061 153.221 60.2516 152.911L60.7128 151.738C62.4708 151.995 64.2351 152.159 65.6961 151.549L68.033 152.472L63.0527 165.1C62.573 166.314 62.8763 166.725 64.427 167.434ZM50.7956 154.499C49.9723 154.499 49.3037 153.831 49.3037 153.007C49.3037 152.184 49.9723 151.515 50.7956 151.515C51.619 151.515 52.2875 152.184 52.2875 153.007C52.2875 153.831 51.619 154.499 50.7956 154.499ZM47.0535 143.79L39.6745 151.153C39.009 151.816 38.5478 152.28 39.3309 153.311L38.7614 153.88L34.2857 149.398C29.0702 144.174 29.3302 138.444 32.1685 135.609C34.2671 133.514 38.7954 131.876 44.5464 137.636L49.7804 142.877L49.2109 143.446C48.1802 142.66 47.719 143.124 47.0535 143.787M18.8374 129.576L17.0762 126.215L26.1607 114.184C26.5414 113.689 26.8695 113.28 26.5693 112.522L27.2843 112.147L30.1288 117.57L29.4138 117.945C28.64 116.843 28.219 117.211 27.6309 118.022L25.4921 120.944L28.4697 126.624L32.0293 126.413C33.0166 126.37 33.4097 126.135 33.0816 124.946L33.7966 124.571L36.1769 129.115L35.4619 129.49C34.9728 128.651 33.9854 128.787 33.3107 128.815L18.8374 129.576ZM12.2384 112.909L11.446 113.051L10.4988 107.795L15.8691 98.5034L11.576 99.2772C10.6536 99.4443 10.0098 99.5589 10.0407 100.723L9.24836 100.865L8.37551 96.0241L9.17098 95.8817C9.5455 96.9836 10.1924 96.8691 11.1148 96.702L21.3755 94.8541C22.2979 94.687 22.9417 94.5725 22.9107 93.4086L23.7062 93.2663L24.579 98.1072L23.7867 98.2496C23.4121 97.1477 22.7652 97.2622 21.8429 97.4293L19.8248 97.7946L13.7643 108.807L23.5731 107.04C24.4955 106.873 25.1393 106.758 25.1083 105.595L25.9038 105.452L26.7767 110.293L25.9843 110.436C25.6067 109.334 24.9628 109.448 24.0405 109.615L13.7798 111.466C12.8574 111.633 12.2136 111.748 12.2446 112.912M8.8305 80.5851C9.17717 77.5704 10.3843 74.8899 12.6345 73.2494L14.4607 76.4623L13.8603 77.2887C13.6622 77.1061 13.495 77.0101 13.235 76.9792C11.6967 76.8027 10.9848 79.3842 10.8207 80.8111C10.6505 82.2937 10.6505 84.612 12.2322 84.7915C15.5255 85.1691 14.5474 72.9925 20.8121 73.7075C24.4088 74.1192 25.39 78.5794 24.9629 82.3215C24.4893 86.4568 23.0129 88.4191 20.0167 90.236L18.3081 86.1689L19.051 85.4384C19.3171 85.8099 19.6762 86.1163 20.1095 86.1658C21.7995 86.3608 22.7683 83.8351 22.954 82.2256C23.1645 80.3808 22.7002 77.7189 20.8586 77.5085C16.7636 77.0411 18.305 89.0691 12.455 88.4006C9.14003 88.0199 8.44361 83.9372 8.82742 80.582M14.1388 60.3609L14.8817 60.6797C14.5876 61.8063 15.1881 62.0664 16.0486 62.4347L19.9764 64.1247L17.7324 57.0892C17.3826 56.0276 16.9462 56.2659 16.4045 57.1449L15.6648 56.8261L18.3638 50.5521L19.1036 50.8709C18.6176 52.0564 18.9674 53.0066 19.2676 54.0745L20.6295 58.9618L31.0016 56.1607C31.5371 56.0214 32.0633 55.7923 32.4316 55.2104L33.1745 55.5292L30.7014 61.274L29.9585 60.9552C30.3764 59.7666 29.9431 59.779 29.3766 59.9368L21.5395 62.0911L22.4805 65.2018L25.6252 66.5544C26.4857 66.9259 27.0862 67.1859 27.7021 66.1954L28.4419 66.5142L26.1236 71.8999L25.3838 71.5811C25.6778 70.4544 25.0774 70.1975 24.2169 69.8261L14.6403 65.7063C13.7798 65.3349 13.1762 65.078 12.5634 66.0654L11.8236 65.7466L14.1419 60.3609H14.1388ZM28.5378 46.81C29.3612 46.81 30.0297 47.4785 30.0297 48.3019C30.0297 49.1252 29.3612 49.7938 28.5378 49.7938C27.7145 49.7938 27.0459 49.1252 27.0459 48.3019C27.0459 47.4785 27.7145 46.81 28.5378 46.81ZM36.9073 28.2974C38.7119 26.6662 41.4171 25.9884 43.0111 27.7526C44.1502 29.0155 43.8623 30.9221 42.8038 32.5224L42.8347 32.5564C44.9023 31.0986 47.4187 30.916 48.9106 32.5657C50.9411 34.8159 49.5018 37.9081 47.0566 40.1181L39.8323 46.6428L39.2907 46.0454C40.0273 45.1447 39.5909 44.6588 38.9626 43.9623L31.9766 36.2274C31.3483 35.5309 30.9088 35.045 29.9369 35.6888L29.3952 35.0883L36.9135 28.3005L36.9073 28.2974ZM56.432 15.4924C61.4649 13.2174 66.7887 14.4524 68.7201 18.7238C70.7134 23.1345 68.3858 27.8981 63.0187 30.3217C57.7475 32.7019 52.6466 31.3926 50.6625 27.0005C48.7064 22.6672 51.328 17.7953 56.432 15.4893M77.9284 9.50934L78.0399 10.3079C76.9225 10.6422 77.0153 11.2891 77.1453 12.2177L78.6929 23.2305L83.6701 22.531C85.0691 22.3329 86.2577 21.946 86.2205 20.5438L87.5174 20.3612L88.0034 23.8155L74.2946 25.7407L74.1832 24.9422C75.3006 24.611 75.2077 23.961 75.0777 23.0324L73.6292 12.7098C73.4992 11.7812 73.4063 11.1343 72.2425 11.122L72.1311 10.3234L77.9377 9.50934H77.9284ZM83.4658 8.05768L87.1367 7.82864C91.5443 7.55626 94.0855 10.0077 94.2372 12.4529C94.3734 14.635 92.897 17.0648 88.3501 17.3465L84.057 17.6127L83.7908 17.6281L83.7753 17.3619L83.7475 16.8946L83.732 16.6624L83.961 16.616C84.4686 16.5139 84.4594 16.3684 84.4253 15.8236L84.0508 9.78173C84.0167 9.23696 84.0075 9.09149 83.4906 9.05435L83.2584 9.03577L83.2429 8.80363L83.2151 8.33625L83.1996 8.07006L83.4658 8.05459V8.05768ZM102.96 23.7567C104.786 24.1095 107.472 23.8557 107.825 22.0357C108.611 17.9903 96.4967 18.5938 97.6172 12.812C98.2517 9.5372 102.378 9.15958 105.693 9.80339C108.673 10.3822 111.252 11.7936 112.71 14.1646L109.367 15.7369L108.587 15.0746C108.782 14.8889 108.893 14.7341 108.943 14.4772C109.237 12.9574 106.72 12.0474 105.309 11.772C103.845 11.4872 101.536 11.3046 101.229 12.8677C100.598 16.1208 112.815 16.0929 111.614 22.2803C110.924 25.8336 106.401 26.4681 102.703 25.75C98.6169 24.9576 96.7753 23.3326 95.1936 20.2034L99.3815 18.8167L100.053 19.6153C99.66 19.8505 99.3288 20.1848 99.2453 20.615C98.9203 22.2865 101.362 23.4472 102.953 23.7567M113.304 27.146C114.409 27.505 114.703 26.92 115.124 26.0843L119.804 16.7708C120.225 15.9319 120.519 15.3469 119.569 14.6753L119.931 13.9541L127.601 17.8077C131.671 19.8505 132.593 22.5619 131.488 24.7626C129.755 28.2107 125.31 27.4431 121.58 26.6445L119.098 26.106L118.306 27.6845C117.885 28.5233 117.591 29.1083 118.541 29.78L118.179 30.5012L112.942 27.8702L113.304 27.1491V27.146ZM136.992 24.481L137.487 23.8434L142.12 27.4338L141.625 28.0714C140.607 27.505 140.208 28.0219 139.632 28.7617L133.246 37.0012C132.671 37.7409 132.271 38.2609 133.073 39.1028L132.578 39.7405L127.944 36.15L128.439 35.5124C129.458 36.0788 129.857 35.5619 130.433 34.8221L136.818 26.5826C137.391 25.8398 137.793 25.3229 136.992 24.481ZM145.763 31.4824L146.364 30.9438L150.267 35.3174L149.663 35.8528C148.766 35.11 148.28 35.5464 147.577 36.1717L139.279 43.5785L142.625 47.3269C143.566 48.3792 144.547 49.153 145.692 48.3421L146.565 49.3171L143.962 51.6416L134.741 41.3128L135.345 40.7743C136.243 41.5171 136.729 41.0807 137.428 40.4586L145.206 33.5159C145.906 32.8907 146.395 32.4574 145.757 31.4793M152.109 47.5962L155.343 52.7652L153.495 53.9228L150.261 48.7538L152.109 47.5962ZM164.1 59.3116C164.471 59.1847 164.418 58.5656 164.279 58.2252L165.041 57.9621L166.892 63.3323L166.127 63.5954C164.378 61.4009 159.707 61.1037 157.46 61.8775C154.452 62.9175 153.341 65.6506 154.579 69.238L155.219 71.092L165.61 67.5078C166.495 67.2013 167.114 66.9878 166.904 65.8425L167.665 65.5794L169.578 71.1199L168.814 71.383C168.275 70.3523 167.656 70.5659 166.768 70.8692L156.913 74.2677C156.024 74.5742 155.408 74.7877 155.619 75.933L154.854 76.1961L152.174 68.427C150.162 62.5894 153.347 59.5221 155.863 58.6554C159.225 57.4947 163.496 59.5097 164.093 59.3054M89.9998 3.82031C42.4045 3.82031 3.81934 42.4054 3.81934 90.0008C3.81934 137.596 42.4045 176.181 89.9998 176.181C137.595 176.181 176.18 137.596 176.18 90.0008C176.18 42.4054 137.595 3.82031 89.9998 3.82031Z" fill="#C90B0E"/>
<path d="M99.3289 163.599C96.9703 163.897 96.1872 165.447 96.4132 167.258C96.6298 168.979 97.936 170.267 100.106 169.991C102.331 169.709 103.374 168.06 103.155 166.317C102.938 164.596 101.499 163.327 99.3258 163.599" fill="#C90B0E"/>
<path d="M99.0628 161.681C100.644 161.483 101.935 160.502 101.756 159.072C101.564 157.552 100.214 156.998 98.4716 157.218C96.8373 157.422 95.6395 158.301 95.8221 159.753C96.0047 161.205 97.345 161.898 99.0597 161.681" fill="#C90B0E"/>
<path d="M92.5039 46.0289C92.5039 46.0289 93.3056 48.1491 93.7822 49.121C94.3301 50.2353 97.3758 56.5372 108.81 53.541C115.099 51.8913 119.169 53.9341 119.21 53.9527C119.21 53.9527 120.751 54.7729 121.122 55.1443C121.122 55.1443 121.494 54.7172 121.175 52.6929C120.739 49.932 118.881 47.7901 114.539 47.0844C113.208 46.8677 111.174 46.9946 109.382 47.2608C109.639 46.5365 109.809 45.6668 109.809 44.5958C109.809 42.7449 109.209 40.9589 108.064 39.9034C106.117 38.1113 103.294 38.6344 103.173 38.6468L101.35 39.2101C101.35 39.2101 101.765 39.3803 102.31 40.5968C102.876 41.8689 102.941 43.6146 101.542 45.447C99.592 48.0037 96.8775 47.8396 95.1689 47.5487C93.4572 47.2546 92.5039 46.0351 92.5039 46.0351" fill="#C90B0E"/>
<path d="M59.9358 53.9536C59.9761 53.935 64.0432 51.8922 70.3358 53.5419C81.7696 56.5381 84.8153 50.2362 85.3632 49.122C85.8398 48.1501 86.6446 46.0298 86.6415 46.0298C86.6415 46.0298 85.6882 47.2493 83.9765 47.5434C82.2648 47.8374 79.5534 48.0015 77.6034 45.4417C76.2044 43.6093 76.2694 41.8636 76.8358 40.5915C77.3806 39.3751 77.7953 39.2048 77.7953 39.2048L75.9722 38.6415C75.8515 38.6322 73.0256 38.106 71.0818 39.8982C69.9365 40.9536 69.3361 42.7396 69.3361 44.5905C69.3361 45.6615 69.5063 46.5312 69.7632 47.2555C67.971 46.9893 65.9375 46.8624 64.6065 47.0791C60.2639 47.7848 58.4068 49.9267 57.9735 52.6877C57.6547 54.7119 58.0261 55.1391 58.0261 55.1391C58.3975 54.7677 59.9389 53.9474 59.9389 53.9474" fill="#C90B0E"/>
<path d="M88.9815 46.4231C89.031 46.6522 89.226 46.8286 89.4705 46.8286H89.6779C89.9224 46.8286 90.1174 46.6522 90.167 46.4231C90.167 46.4231 91.1729 42.2446 91.6527 40.7C92.1324 39.1555 92.931 37.2891 92.931 37.2891C92.2098 36.7289 90.9191 36.4627 89.6748 36.4689H89.4705C88.2263 36.4627 86.9355 36.7289 86.2144 37.2891C86.2144 37.2891 87.0129 39.1555 87.4927 40.7C87.9724 42.2446 88.9784 46.4231 88.9784 46.4231" fill="#C90B0E"/>
<path d="M81.1505 124.587C81.1505 124.587 75.6998 119.273 69.0512 121.548C60.4248 124.501 53.897 120.836 53.897 120.836C53.897 120.836 57.2274 128.364 61.8239 128.299C63.2786 128.277 64.9779 127.649 65.9715 127.435C64.201 135.244 70.5772 135.458 70.5772 135.458C70.5772 135.458 68.7386 129.66 71.3974 126.717C74.2883 123.52 77.7395 125.225 77.7395 125.225C79.0179 124.104 81.1505 124.584 81.1505 124.584" fill="#C90B0E"/>
<path d="M100.821 126.095C99.5455 125.637 97.9143 125.813 97.1684 126.08C96.3574 126.367 93.8286 128.642 93.8286 128.642C93.8286 128.642 94.717 129.757 94.717 131.249C94.717 132.902 93.8627 133.805 93.8627 133.805C93.8627 133.805 96.9022 136.628 97.3974 136.894C98.9388 137.727 100.394 137.746 101.418 136.637C104.043 133.805 103.498 129.85 102.566 127.767C102.201 126.949 101.598 126.371 100.818 126.092" fill="#C90B0E"/>
<path d="M111.131 121.553C104.482 119.278 99.0317 124.592 99.0317 124.592C99.0317 124.592 101.164 124.112 102.443 125.233C102.443 125.233 105.894 123.524 108.785 126.725C111.444 129.668 109.605 135.466 109.605 135.466C109.605 135.466 115.978 135.252 114.211 127.443C115.204 127.656 116.904 128.285 118.358 128.306C122.955 128.371 126.285 120.844 126.285 120.844C126.285 120.844 119.757 124.508 111.131 121.556" fill="#C90B0E"/>
<path d="M85.4684 131.253C85.4684 129.761 86.3568 128.646 86.3568 128.646C86.3568 128.646 83.828 126.371 83.017 126.084C82.2711 125.817 80.6399 125.641 79.3646 126.099C78.5846 126.378 77.9811 126.956 77.6158 127.774C76.6873 129.86 76.1425 133.812 78.7673 136.644C79.7918 137.753 81.2465 137.734 82.788 136.901C83.2801 136.635 86.3227 133.812 86.3227 133.812C86.3227 133.812 85.4684 132.905 85.4684 131.256" fill="#C90B0E"/>
<path d="M87.0657 127.713C87.0657 127.713 88.0067 126.8 90.0898 126.778C92.1728 126.797 93.1138 127.713 93.1138 127.713C93.1138 127.713 94.7635 126.626 95.46 125.336C96.1224 124.11 96.1997 121.665 95.1938 120.538C93.8164 118.994 91.9314 118.526 90.1547 118.56C90.1331 118.56 90.1114 118.56 90.0898 118.56C90.0681 118.56 90.0464 118.56 90.0247 118.56C88.2481 118.526 86.3631 118.994 84.9857 120.538C83.9829 121.665 84.0571 124.107 84.7195 125.336C85.4159 126.626 87.0657 127.713 87.0657 127.713Z" fill="#C90B0E"/>
<path d="M93.117 134.719C93.117 134.719 91.8665 135.496 90.0929 135.514C88.3163 135.496 87.0689 134.719 87.0689 134.719C87.0689 134.719 84.896 137.52 84.5091 138.288C84.311 138.684 84.0541 140.231 84.5091 141.507C84.7877 142.287 85.3665 142.89 86.1837 143.255C87.137 143.679 88.5391 144.079 90.0248 144.11V144.116C90.0465 144.116 90.0682 144.116 90.0898 144.113C90.1115 144.113 90.1332 144.113 90.1548 144.116V144.11C91.6405 144.079 93.0427 143.683 93.996 143.255C94.8132 142.89 95.392 142.287 95.6705 141.507C96.1286 140.228 95.8686 138.681 95.6705 138.288C95.2836 137.517 93.1108 134.719 93.1108 134.719" fill="#C90B0E"/>
</svg>